PathFileType	3	(X/Y/Z)	E:\ViconData\BIOM9541 2025\Week 7\Wed1100\Hanif  deep squat 2-5 Squat 01.trc
DataRate	CameraRate	NumFrames	NumMarkers	Units	OrigDataRate	OrigDataStartFrame	OrigNumFrames
200.0	200.0	15	19	mm	200.0	837	1338	
Frame#	Time	C7			CLAV			RBAK			LASI			RASI			LPSI			RPSI			LTHI			LKNE			LTIB			LANK			LHEE			LTOE			RTHI			RKNE			RTIB			RANK			RHEE			RTOE			
		X1	Y1	Z1	X2	Y2	Z2	X3	Y3	Z3	X4	Y4	Z4	X5	Y5	Z5	X6	Y6	Z6	X7	Y7	Z7	X8	Y8	Z8	X9	Y9	Z9	X10	Y10	Z10	X11	Y11	Z11	X12	Y12	Z12	X13	Y13	Z13	X14	Y14	Z14	X15	Y15	Z15	X16	Y16	Z16	X17	Y17	Z17	X18	Y18	Z18	X19	Y19	Z19	
837	4.18	291.57547	1321.1869	-1206.3723	145.55023	1246.8126	-1195.9589	313.75046	1236.3773	-1349.2452	191.30338	879.40149	-1072.9102	186.20096	888.95905	-1334.6738	358.20612	941.12823	-1164.6233	357.15591	938.63837	-1234.0833	235.55806	561.48059	-985.95026	244.83594	421.5556	-986.21906	285.39941	221.11673	-956.39807	306.84494	64.097549	-965.97949	325.02496	49.445541	-1025.5472	163.68549	37.829102	-931.60748	245.95503	732.73535	-1402.9827	266.14294	421.85974	-1417.7214	283.81003	335.06656	-1438.7694	303.16525	73.919655	-1430.9681	317.94183	49.027802	-1364.3418	165.12772	40.360065	-1476.8348
838	4.185	291.51636	1321.1958	-1206.3909	145.49475	1246.7634	-1195.9692	313.76126	1236.4435	-1349.2362	191.42007	879.37946	-1072.9552	186.42192	888.90656	-1334.7775	358.43558	941.01038	-1164.7666	357.38974	938.68481	-1234.0829	235.42157	561.44647	-985.91223	244.53065	421.57831	-986.13654	285.18533	221.14091	-956.32922	306.80713	64.12693	-965.99487	324.97464	49.364552	-1025.5385	163.65353	37.872807	-931.68994	245.86601	732.68225	-1403.3861	265.91174	421.79541	-1417.8865	283.62793	334.94611	-1438.9222	303.14658	73.817482	-1430.9789	317.94971	48.447712	-1365.1483	165.12759	40.302765	-1476.8054
839	4.19	291.42606	1321.1929	-1206.3616	145.46426	1246.7108	-1195.9252	313.76385	1236.5309	-1349.2375	191.68608	879.28589	-1073.1677	186.65219	888.90717	-1334.9247	358.65466	940.90356	-1164.8635	358.16049	938.41901	-1234.9033	235.25658	561.42157	-985.89056	244.15326	421.55954	-986.0509	284.96609	221.14946	-956.29083	306.77853	64.144783	-965.99194	324.93283	49.373951	-1025.5551	163.61385	37.888306	-931.7088	246.31816	732.65863	-1403.1765	265.61026	421.75101	-1418.1093	283.38367	334.90314	-1439.1066	303.13986	73.778885	-1430.9805	317.96634	48.441582	-1365.1674	165.10358	40.324028	-1476.7762
840	4.195	291.30573	1321.1727	-1206.374	145.40317	1246.6088	-1195.9115	313.70728	1236.5188	-1349.2202	191.96559	879.1557	-1073.3582	186.90173	888.91309	-1335.0533	358.91733	940.80609	-1164.9353	358.3898	938.29932	-1234.9368	235.05948	561.36414	-985.84259	243.76526	421.47192	-985.95117	284.75607	221.06311	-956.27539	306.70187	64.177032	-965.92554	324.93506	49.43935	-1025.5342	163.58603	37.886471	-931.70074	246.47202	732.69696	-1403.2734	265.2384	421.78598	-1418.3768	283.07489	334.91907	-1439.3215	303.09595	73.847374	-1431.0002	318.00906	49.023743	-1364.3608	165.11639	40.364887	-1476.7551
841	4.2	291.19519	1321.1306	-1206.3676	145.36168	1246.4824	-1195.947	313.6774	1236.5038	-1349.2576	192.19795	879.07526	-1073.4608	187.18248	888.86945	-1335.1608	359.19125	940.73633	-1164.9846	358.64545	938.10382	-1235.0148	234.85739	561.27893	-985.78888	243.32217	421.35504	-985.8429	284.50311	221.01697	-956.23755	306.66693	64.156113	-965.94287	324.95193	49.472446	-1025.5471	163.58476	37.892792	-931.72443	246.62759	732.72601	-1403.3573	264.76715	421.81015	-1418.6522	282.70837	334.89996	-1439.5533	303.06415	73.890648	-1431.0419	317.96564	49.070904	-1364.3499	165.10033	40.429626	-1476.7623
842	4.205	291.08807	1321.0322	-1206.4073	145.33353	1246.3224	-1196.0667	313.67014	1236.4362	-1349.3224	192.47296	878.99481	-1073.5658	187.52141	888.69647	-1335.1951	359.56427	940.68744	-1165.0989	358.49533	938.27716	-1234.4189	234.59312	561.24542	-985.68494	242.88092	421.34299	-985.68329	284.25055	220.94395	-956.17877	306.61896	64.133728	-965.94025	324.95645	49.440025	-1025.5701	163.55228	37.852467	-931.73834	246.85251	732.66479	-1403.4584	264.29996	421.73108	-1418.9449	282.33142	334.77658	-1439.8181	303.05353	73.843544	-1431.0743	317.98477	49.061222	-1364.3894	165.10898	40.434551	-1476.7537
843	4.21	290.99081	1320.9369	-1206.4429	145.28717	1246.118	-1196.165	313.68335	1236.4053	-1349.3599	192.83852	878.8808	-1073.7158	187.92685	888.46185	-1335.2552	359.95959	940.62323	-1165.2423	358.85406	938.32263	-1234.3448	234.35545	561.13666	-985.60242	242.38354	421.28595	-985.51208	283.99512	220.8607	-956.09613	306.60779	64.084335	-965.94604	324.98477	49.368778	-1025.6072	163.58467	37.840649	-931.83844	247.05595	732.55017	-1403.5344	263.78305	421.58542	-1419.3014	281.90131	334.60703	-1440.1088	303.04199	73.739464	-1431.108	317.9942	49.135212	-1364.3999	165.12263	40.375156	-1476.7313
844	4.215	290.86029	1320.8115	-1206.4811	145.92198	1245.9884	-1192.6906	313.64972	1236.3468	-1349.433	192.33165	879.11975	-1071.9601	188.2412	888.41144	-1335.3875	360.28607	940.47876	-1165.2467	359.76834	937.87146	-1235.2548	234.04729	561.11542	-985.41681	241.84508	421.17065	-985.3006	283.73657	220.82478	-955.99506	306.60367	64.070061	-965.96356	324.96881	49.343781	-1025.6074	163.55806	37.81802	-931.84296	247.30255	732.46002	-1403.6089	263.1543	421.48331	-1419.7026	281.32364	334.55191	-1440.4198	302.96436	73.747353	-1431.14	318.02905	49.088852	-1364.457	165.11792	40.389179	-1476.7335
845	4.22	290.73401	1320.7488	-1206.4875	145.22641	1245.7565	-1196.2623	313.54361	1236.2518	-1349.4703	193.48665	878.62823	-1073.6333	188.62352	888.2865	-1335.4303	360.71249	940.37054	-1165.3171	360.15039	937.68439	-1235.3502	233.68541	561.04333	-985.20038	241.20065	421.04898	-985.01013	283.39532	220.74146	-955.83905	306.55777	64.066864	-965.95709	324.97562	49.40044	-1025.5868	163.54587	37.851578	-931.88562	247.56963	732.41876	-1403.7251	262.3959	421.4267	-1420.1499	280.71753	334.49713	-1440.7518	302.85953	73.78038	-1431.1917	318.00064	49.142036	-1364.4575	165.08759	40.411907	-1476.6769
846	4.225	290.57153	1320.6356	-1206.5277	145.17909	1245.4932	-1196.1476	313.47318	1236.2507	-1349.5093	193.95026	878.44135	-1073.6744	189.01627	888.18988	-1335.5044	361.10507	940.22119	-1165.3119	360.10486	937.94958	-1234.698	233.35405	560.89551	-985.04395	240.51401	420.96738	-984.70062	283.01398	220.62396	-955.69757	306.50854	64.083923	-965.94238	324.96362	49.483452	-1025.5593	163.55093	37.886127	-931.94611	247.85248	732.38806	-1403.8386	261.56897	421.45987	-1420.6257	279.9819	334.4325	-1441.0677	302.72748	73.837189	-1431.2325	317.96613	49.123158	-1364.4396	165.01759	40.473335	-1476.6484
847	4.23	290.40717	1320.5016	-1206.5452	145.09163	1245.2451	-1196.3145	313.40552	1236.2108	-1349.5328	194.45813	878.21655	-1073.7688	189.44791	888.01605	-1335.5524	361.66409	940.11542	-1165.4883	360.6167	937.80652	-1234.8361	232.9646	560.87604	-984.79309	239.64494	420.96136	-984.20935	282.57892	220.54549	-955.51996	306.47473	64.058182	-965.99115	324.9678	49.516674	-1025.6154	163.54716	37.936165	-932.01721	248.14882	732.2995	-1403.9375	260.73987	421.2731	-1421.1846	279.21805	334.29312	-1441.4933	302.61145	73.824112	-1431.2838	317.89771	49.162239	-1364.3582	164.98222	40.444023	-1476.5859
848	4.235	290.24747	1320.3517	-1206.5829	145.00995	1244.9412	-1196.4099	313.37091	1236.1412	-1349.5771	195.00484	877.98383	-1073.895	189.92218	887.73077	-1335.6108	362.20535	939.93188	-1165.5709	361.68021	937.52313	-1235.627	232.49437	560.90594	-984.45239	238.61981	420.81845	-983.69037	282.10648	220.47273	-955.35132	306.41977	64.068771	-965.99982	324.93567	49.486675	-1025.646	163.59966	37.921726	-932.0954	248.46112	732.16669	-1404.0366	259.7731	421.08273	-1421.8212	278.41617	334.16071	-1441.9225	302.56439	73.702324	-1431.3143	317.87097	49.229023	-1364.342	164.99367	40.350636	-1476.5303
849	4.24	290.05856	1320.0953	-1206.657	144.74373	1244.8352	-1196.5771	313.30606	1235.9939	-1349.6591	195.61322	877.74261	-1074.0824	190.39903	887.49359	-1335.677	362.76974	939.8291	-1165.6038	361.7482	937.6958	-1234.9875	231.9837	560.93378	-984.06256	237.54091	420.83499	-983.1098	281.4986	220.36775	-955.0661	306.34445	64.125191	-966.00867	324.93494	49.4865	-1025.6808	163.58224	37.927612	-932.1687	248.80234	731.93689	-1404.0959	258.72949	420.93085	-1422.4811	277.51273	333.89841	-1442.4156	302.48035	73.606018	-1431.3514	317.86349	49.271488	-1364.3271	164.98645	40.304874	-1476.4813
850	4.245	289.82941	1319.8203	-1206.7172	145.43712	1244.3059	-1193.2064	313.23941	1235.8134	-1349.7762	195.54973	877.96826	-1072.595	190.96089	887.23175	-1335.6748	363.28894	939.58527	-1165.5922	362.83563	937.2962	-1235.7756	231.42432	560.95367	-983.71283	236.26337	420.7117	-982.48981	280.81357	220.27396	-954.80292	306.23312	64.201019	-965.97522	324.88324	49.577225	-1025.7091	163.56534	37.947815	-932.2002	249.10538	731.8327	-1404.1807	257.6124	420.83218	-1423.2303	276.57968	333.76355	-1442.9232	302.40787	73.615578	-1431.3877	317.85635	49.280537	-1364.3175	164.97757	40.317085	-1476.4187
851	4.25	289.6091	1319.5774	-1206.7487	144.68692	1243.9152	-1196.6998	313.11749	1235.639	-1349.8257	197.00343	877.15967	-1074.2766	191.61104	886.87842	-1335.7744	363.95346	939.40521	-1165.7072	363.39041	936.96753	-1235.8254	230.77229	560.92444	-983.2691	234.86252	420.60257	-981.79761	280.03503	220.18095	-954.48938	306.03943	64.218224	-965.95667	324.76221	49.740547	-1025.6639	163.52908	37.943928	-932.22168	249.50037	731.78558	-1404.3459	256.3226	420.8414	-1424.0416	275.52719	333.69812	-1443.5175	302.29077	73.652809	-1431.4209	317.90012	49.257263	-1364.3528	164.97708	40.362171	-1476.3361
